<?xml version="1.0" ?><svg id="Layer_1" width="163" height="40" style="enable-background:new 0 0 48 48;" 
version="1.1" viewBox="0 0 48 48" xml:space="preserve" 
xmlns="http://www.w3.org/2000/svg" xmlns:xlink="http://www.w3.org/1999/xlink">
<style type="text/css">
	.st0{fill:#D0D2D3;}
	.st1{fill:#231F20;}
	.st2{fill:#F6921E;}
	.st3{fill:#6D6E70;}
	.st4{fill:#BE1E2D;}
	.st5{fill:#F1F1F2;}
	.st6{fill:#404041;}
	.st7{fill:#A6A8AB;}
	.st8{fill:#1B75BB;}
	.st9{fill:#FFDD15;}
	.st10{fill:#F05A28;}
	.st11{fill:#00A69C;}
</style><g><g>
<path class="st6" 
d="M34.66,41.21h-1.14c-0.8,0-1.45-0.65-1.45-1.45v-16.2c0-0.8,0.65-1.45,1.45-1.45h1.14    c0.8,0,1.45,0.65,1.45,1.45v16.2C36.11,40.56,35.46,41.21,34.66,41.21z"/><path class="st1" d="M34.66,41.71h-1.14c-1.08,0-1.95-0.88-1.95-1.95v-16.2c0-1.08,0.88-1.95,1.95-1.95h1.14    c1.08,0,1.95,0.88,1.95,1.95v16.2C36.61,40.84,35.74,41.71,34.66,41.71z M33.52,22.61c-0.53,0-0.95,0.43-0.95,0.95v16.2    c0,0.53,0.43,0.95,0.95,0.95h1.14c0.53,0,0.95-0.43,0.95-0.95v-16.2c0-0.53-0.43-0.95-0.95-0.95H33.52z"/></g><g><path class="st6" d="M37.76,38.84h-0.74c-0.52,0-0.95-0.42-0.95-0.95V25.42c0-0.52,0.42-0.95,0.95-0.95h0.74    c0.52,0,0.95,0.42,0.95,0.95V37.9C38.71,38.42,38.29,38.84,37.76,38.84z"/><path class="st1" d="M37.76,39.34h-0.74c-0.8,0-1.45-0.65-1.45-1.45V25.42c0-0.8,0.65-1.45,1.45-1.45h0.74    c0.8,0,1.45,0.65,1.45,1.45V37.9C39.21,38.7,38.56,39.34,37.76,39.34z M37.02,24.98c-0.25,0-0.45,0.2-0.45,0.45V37.9    c0,0.25,0.2,0.45,0.45,0.45h0.74c0.25,0,0.45-0.2,0.45-0.45V25.42c0-0.25-0.2-0.45-0.45-0.45H37.02z"/></g><g><path class="st6" d="M13.55,22.11h1.14c0.8,0,1.45,0.65,1.45,1.45v16.2c0,0.8-0.65,1.45-1.45,1.45h-1.14    c-0.8,0-1.45-0.65-1.45-1.45v-16.2C12.1,22.76,12.75,22.11,13.55,22.11z"/><path class="st1" d="M14.69,41.71h-1.14c-1.08,0-1.95-0.88-1.95-1.95v-16.2c0-1.08,0.88-1.95,1.95-1.95h1.14    c1.08,0,1.95,0.88,1.95,1.95v16.2C16.65,40.84,15.77,41.71,14.69,41.71z M13.55,22.61c-0.53,0-0.95,0.43-0.95,0.95v16.2    c0,0.53,0.43,0.95,0.95,0.95h1.14c0.53,0,0.95-0.43,0.95-0.95v-16.2c0-0.53-0.43-0.95-0.95-0.95H13.55z"/></g><g><path class="st6" d="M10.45,24.48h0.74c0.52,0,0.95,0.42,0.95,0.95V37.9c0,0.52-0.42,0.95-0.95,0.95h-0.74    c-0.52,0-0.95-0.42-0.95-0.95V25.42C9.5,24.9,9.92,24.48,10.45,24.48z"/><path class="st1" d="M11.19,39.34h-0.74C9.65,39.34,9,38.7,9,37.9V25.42c0-0.8,0.65-1.45,1.45-1.45h0.74    c0.8,0,1.45,0.65,1.45,1.45V37.9C12.64,38.7,11.99,39.34,11.19,39.34z M10.45,24.98c-0.25,0-0.45,0.2-0.45,0.45V37.9    c0,0.25,0.2,0.45,0.45,0.45h0.74c0.25,0,0.45-0.2,0.45-0.45V25.42c0-0.25-0.2-0.45-0.45-0.45H10.45z"/></g><g><path class="st2" d="M24.97,6.79h-1.95C14,6.79,6.69,14.1,6.69,23.12v9.23c0,1.51,1.16,2.74,2.64,2.85V23.06    c0-7.47,6.06-13.53,13.53-13.53h2.41c7.47,0,13.53,6.06,13.53,13.53v12.15h0.43c1.16,0,2.09-0.94,2.09-2.09v-10    C41.31,14.1,34,6.79,24.97,6.79z"/><path class="st1" d="M39.22,35.71h-0.43c-0.28,0-0.5-0.22-0.5-0.5V23.06c0-7.18-5.84-13.03-13.03-13.03h-2.41    c-7.18,0-13.03,5.84-13.03,13.03V35.2c0,0.14-0.06,0.27-0.16,0.37s-0.24,0.14-0.38,0.13c-1.74-0.14-3.1-1.61-3.1-3.35v-9.23    c0-9.28,7.55-16.83,16.83-16.83h1.95c9.28,0,16.83,7.55,16.83,16.83v10C41.81,34.55,40.65,35.71,39.22,35.71z M22.85,9.04h2.41    c7.73,0,14.03,6.29,14.03,14.03v11.65c0.85-0.04,1.52-0.74,1.52-1.59v-10c0-8.73-7.1-15.83-15.83-15.83h-1.95    c-8.73,0-15.83,7.1-15.83,15.83v9.23c0,1.04,0.69,1.94,1.64,2.25V23.06C8.83,15.33,15.12,9.04,22.85,9.04z"/></g></g></svg>